<svg width="27" height="17" viewBox="0 0 27 17" fill="none" xmlns="http://www.w3.org/2000/svg">
  <path d="M2.65388 16.5H1.84612L1.275 13.5H0V8.41425C0 7.74325 0.236 7.17312 0.708 6.70388C1.18025 6.23462 1.752 6 2.42325 6H3V2.42287C3 1.75187 3.236 1.18025 3.708 0.708C4.18025 0.236 4.752 0 5.42325 0H21.5768C22.248 0 22.8197 0.236 23.292 0.708C23.764 1.18025 24 1.75187 24 2.42287V6H24.5768C25.248 6 25.8198 6.236 26.292 6.708C26.764 7.18025 27 7.752 27 8.42325V13.5H25.725L25.1539 16.5H24.3461L23.775 13.5H3.225L2.65388 16.5ZM14.25 6H22.5V2.42287C22.5 2.15387 22.4135 1.93275 22.2405 1.7595C22.0673 1.5865 21.846 1.5 21.5768 1.5H14.25V6ZM4.5 6H12.75V1.5H5.42325C5.154 1.5 4.93275 1.5865 4.7595 1.7595C4.5865 1.93275 4.5 2.15387 4.5 2.42287V6ZM1.5 12H25.5V8.42325C25.5 8.154 25.4135 7.93275 25.2405 7.7595C25.0673 7.5865 24.846 7.5 24.5768 7.5H2.42325C2.154 7.5 1.93275 7.5865 1.7595 7.7595C1.5865 7.93275 1.5 8.154 1.5 8.42325V12Z" fill="#5A98C0"/>
</svg>