<svg width="28" height="28" viewBox="0 0 28 28" fill="none" xmlns="http://www.w3.org/2000/svg">
<path d="M0.744141 13.9999C0.744141 19.7312 4.41914 24.5874 9.49414 26.3812V1.61865C4.41914 3.4124 0.744141 8.26865 0.744141 13.9999Z" fill="#75A843"/>
<path d="M26.9941 13.9999C26.9941 8.26865 23.3191 3.4124 18.2441 1.61865V26.3812C23.3629 24.5874 26.9941 19.7312 26.9941 13.9999Z" fill="#ED4C5C"/>
<path d="M9.49414 26.3813C10.8504 26.8625 12.3379 27.125 13.8691 27.125C15.4004 27.125 16.8879 26.8625 18.2441 26.3813V1.61875C16.8879 1.1375 15.4004 0.875 13.8691 0.875C12.3379 0.875 10.8504 1.1375 9.49414 1.61875V26.3813Z" fill="white"/>
</svg>
