<svg width="32" height="32" viewBox="0 0 32 32" fill="none" xmlns="http://www.w3.org/2000/svg">
  <path d="M7.769 27H11.769V19.3845H13.769V14.231C13.769 13.3873 13.48 12.6763 12.902 12.098C12.3237 11.52 11.6127 11.231 10.769 11.231H8.769C7.92567 11.231 7.21483 11.52 6.6365 12.098C6.05817 12.6763 5.769 13.3873 5.769 14.231V19.3845H7.769V27ZM9.769 9.3845C10.3667 9.3845 10.8687 9.18133 11.275 8.775C11.6813 8.36867 11.8845 7.86667 11.8845 7.269C11.8845 6.67167 11.6813 6.16983 11.275 5.7635C10.8687 5.35717 10.3667 5.154 9.769 5.154C9.17167 5.154 8.66983 5.35717 8.2635 5.7635C7.85717 6.16983 7.654 6.67167 7.654 7.269C7.654 7.86667 7.85717 8.36867 8.2635 8.775C8.66983 9.18133 9.17167 9.3845 9.769 9.3845ZM19.423 13H25.8075L22.6155 7.8845L19.423 13ZM22.6155 24.1155L25.8075 19H19.423L22.6155 24.1155ZM3.231 32C2.31033 32 1.54167 31.6917 0.925 31.075C0.308333 30.4583 0 29.6897 0 28.769V3.231C0 2.31033 0.308333 1.54167 0.925 0.925C1.54167 0.308333 2.31033 0 3.231 0H28.769C29.6897 0 30.4583 0.308333 31.075 0.925C31.6917 1.54167 32 2.31033 32 3.231V28.769C32 29.6897 31.6917 30.4583 31.075 31.075C30.4583 31.6917 29.6897 32 28.769 32H3.231ZM3.231 30H28.769C29.128 30 29.423 29.8847 29.654 29.654C29.8847 29.423 30 29.128 30 28.769V3.231C30 2.872 29.8847 2.577 29.654 2.346C29.423 2.11533 29.128 2 28.769 2H3.231C2.872 2 2.577 2.11533 2.346 2.346C2.11533 2.577 2 2.872 2 3.231V28.769C2 29.128 2.11533 29.423 2.346 29.654C2.577 29.8847 2.872 30 3.231 30Z" fill="white"/>
</svg>
