<svg width="27" height="24" viewBox="0 0 27 24" fill="none" xmlns="http://www.w3.org/2000/svg">
<path d="M13.5 24.0056L12.3634 22.9789C9.91538 20.7424 7.89038 18.828 6.28838 17.2358C4.68663 15.6433 3.42225 14.2389 2.49525 13.0226C1.56825 11.8064 0.920625 10.7059 0.552375 9.72112C0.184125 8.73662 0 7.74625 0 6.75C0 4.84225 0.648125 3.24037 1.94438 1.94437C3.24038 0.648124 4.84225 0 6.75 0C8.06925 0 9.30675 0.3375 10.4625 1.0125C11.6183 1.6875 12.6308 2.66925 13.5 3.95775C14.3693 2.66925 15.3818 1.6875 16.5375 1.0125C17.6933 0.3375 18.9307 0 20.25 0C22.1578 0 23.7596 0.648124 25.0556 1.94437C26.3519 3.24037 27 4.84225 27 6.75C27 7.74625 26.8159 8.73662 26.4476 9.72112C26.0794 10.7059 25.4318 11.8064 24.5048 13.0226C23.5778 14.2389 22.3181 15.6433 20.7259 17.2358C19.1336 18.828 17.1039 20.7424 14.6366 22.9789L13.5 24.0056ZM13.5 21.975C15.9 19.8057 17.875 17.9476 19.425 16.4006C20.975 14.8534 22.2 13.511 23.1 12.3735C24 11.236 24.625 10.2284 24.975 9.35062C25.325 8.47262 25.5 7.60575 25.5 6.75C25.5 5.25 25 4 24 3C23 2 21.75 1.5 20.25 1.5C19.0557 1.5 17.9539 1.84088 16.9444 2.52263C15.9346 3.20438 15.0308 4.23075 14.2328 5.60175H12.7673C11.95 4.2115 11.0414 3.18025 10.0414 2.508C9.04138 1.836 7.94425 1.5 6.75 1.5C5.26925 1.5 4.024 2 3.01425 3C2.00475 4 1.5 5.25 1.5 6.75C1.5 7.60575 1.675 8.47262 2.025 9.35062C2.375 10.2284 3 11.236 3.9 12.3735C4.8 13.511 6.025 14.8485 7.575 16.386C9.125 17.9235 11.1 19.7865 13.5 21.975Z" fill="white"/>
</svg>
