<svg width="113" height="100" viewBox="0 0 113 100" fill="none" xmlns="http://www.w3.org/2000/svg">
<g clip-path="url(#clip0_116_782)">
<path fill-rule="evenodd" clip-rule="evenodd" d="M0 0V100H99.605V0H0ZM89.6439 90.0013H9.96027V9.99941H89.6439V90.0013Z" fill="white"/>
<path d="M51.2444 29.6456L57.7802 38.9945C59.3618 41.2518 60.2748 41.9226 61.9268 41.9579V42.6279H51.4906V41.9579C53.9852 41.9579 54.512 41.4283 54.0208 40.194C53.7396 39.3821 52.6503 37.7947 52.1581 37.054L49.0662 32.4678L45.1658 37.3711C44.5335 38.1477 43.6903 39.1355 43.2332 39.9822C42.7063 40.97 43.5847 41.9579 45.7278 41.9579V42.6279H37.5413V41.9579C39.5437 41.9579 41.0549 39.9469 42.9172 37.6183L48.1527 31.1269L44.5687 25.8353C41.6522 21.531 40.4925 20.0496 37.9626 19.9438V19.2736H48.5741V19.9438C46.3256 19.9438 45.9037 20.2262 45.9037 21.0374C45.9037 22.1312 48.5038 25.7648 49.1368 26.6467L50.4014 28.3752L54.0557 23.8243C54.5826 23.189 55.7421 21.9898 55.7421 21.0727C55.7421 19.9789 54.021 19.9436 53.2832 19.9436V19.2734H61.6455V19.9436C59.1152 19.9436 57.1831 22.3071 56.1283 23.5772L51.2444 29.6456Z" fill="white"/>
<path d="M61.2939 69.7567C61.2939 76.5657 56.8313 81.9279 49.8039 81.9279C43.6198 81.9279 38.2788 77.2358 38.2788 69.7567C38.2788 62.736 42.9516 57.4444 49.8039 57.5857C55.8825 57.3033 61.2939 62.2418 61.2939 69.7567ZM42.2842 69.7567C42.2842 77.024 45.6572 80.9753 49.8039 80.6571C56.0579 80.1639 57.4989 73.5311 57.3237 69.7567C57.3237 64.2175 55.2499 58.7847 49.8039 58.8554C44.5685 59.2082 42.2842 63.0184 42.2842 69.7567Z" fill="white"/>
<path d="M83.737 48.6777H16.0162V51.3235H83.737V48.6777Z" fill="white"/>
<path d="M104.117 88.7375V85.0066C104.032 84.2724 104.336 82.5595 106.273 82.3271C108.43 82.0696 109.259 83.6967 109.234 84.6394V87.5872H113V88.7374H104.117V88.7375ZM108.224 87.5872V84.6633C108.224 84.4428 107.821 83.3665 106.59 83.4642C105.384 83.5619 105.128 84.5167 105.128 85.0184V87.5872H108.224Z" fill="white"/>
<path d="M104.117 75.525V71.5368C104.117 70.1543 104.373 68.8084 106.384 68.6988C107.541 68.6369 107.955 68.992 108.613 69.8727C109.185 68.955 109.417 68.8572 110.88 68.8333C112 68.8083 112.415 68.7595 112.708 68.3555H113V69.738C112.585 69.9096 112.22 69.9585 111.879 69.9955C110.831 70.0932 109.185 69.5795 109.185 71.4509V74.3747H113V75.5249H104.117V75.525ZM105.128 74.3748H108.174V71.4998C108.174 70.7417 107.967 69.9825 106.822 69.8609C105.31 69.7011 105.128 70.8026 105.128 71.5119V74.3748Z" fill="white"/>
<path d="M104.117 61.5778V60.4277H113V61.5778H104.117Z" fill="white"/>
<path d="M104.117 47.6946V46.4717L113 49.6029V50.8391L104.117 53.9952V52.7723L111.635 50.1906L104.117 47.6946Z" fill="white"/>
<path d="M113 40.7088V41.9322L104.117 38.6902V37.2832L113 34.1514V35.4356L110.343 36.3415V39.7546L113 40.7088ZM109.393 39.4489V36.6837L105.506 37.9931L109.393 39.4489Z" fill="white"/>
<path d="M105.128 27.2266V30.1629H104.117V23.165H105.128V26.0769H113V27.2266H105.128Z" fill="white"/>
<path d="M104.117 16.8154V10.6248H105.128V15.6651H107.931V10.8205H108.942V15.6651H111.988V10.417H113V16.8155H104.117V16.8154Z" fill="white"/>
</g>
<defs>
<clipPath id="clip0_116_782">
<rect width="113" height="100" fill="white"/>
</clipPath>
</defs>
</svg>
