<svg width="100" height="100" viewBox="0 0 100 100" fill="none" xmlns="http://www.w3.org/2000/svg">
<path d="M100 50.1147C99.9837 76.8359 78.661 99.3584 51.1056 99.9867C23.1424 100.624 0.41408 78.3065 0.00653233 51.0074C-0.206894 36.7069 4.8103 24.4319 14.9436 14.3889C24.6206 4.79826 36.4493 -0.000479503 50.0572 3.59366e-08C77.4098 0.001079 100.004 22.1567 100 50.1147ZM1.24045 50.5049C1.57689 78.0419 24.3666 99.4636 51.299 98.7114C78.3731 97.9553 99.4869 75.4427 98.7091 48.6118C97.9348 21.9029 75.7747 0.639945 48.8197 1.27785C21.8166 1.91684 0.999683 24.1968 1.24045 50.5049Z" fill="white"/>
<path d="M49.9624 84.5288C30.9197 84.5487 15.6709 69.1263 15.4399 50.4372C15.2001 31.0314 31.0638 15.1248 50.5974 15.4522C69.1484 15.7632 84.5511 30.9229 84.5321 50.0505C84.5133 69.1073 69.0013 84.5854 49.9624 84.5288ZM31.2333 50.7018C31.2333 50.7814 31.2229 50.8152 31.2348 50.8363C31.8871 51.9852 32.8174 52.7247 34.1882 52.7316C37.1052 52.7462 40.0223 52.7431 42.9393 52.7336C44.6855 52.7278 45.9291 51.8719 46.7778 50.3881C46.8587 50.2467 46.8982 50.0819 46.9411 49.9695C46.0647 49.4984 45.2267 49.0979 44.4394 48.615C42.3103 47.3089 40.7667 45.5312 40.1234 43.0617C40.0084 42.6204 40.0038 42.6186 39.5502 42.6186C34.3111 42.618 29.0721 42.6181 23.833 42.6194C23.6951 42.6194 23.5572 42.636 23.3663 42.6482C23.6143 43.1837 23.964 43.5598 24.3245 43.9318C24.8482 44.4723 25.4696 44.7181 26.2304 44.7151C29.8876 44.7005 33.5448 44.7084 37.202 44.7085C37.347 44.7085 37.4922 44.7102 37.6373 44.7122C37.8806 44.7157 38.0136 44.8511 38.0451 45.0805C38.0743 45.293 37.9063 45.503 37.6735 45.5429C37.5463 45.5647 37.4131 45.5547 37.2827 45.5547C33.7126 45.5551 30.1424 45.555 26.5723 45.5551C26.4066 45.5551 26.2409 45.5551 26.0302 45.5551C26.0793 45.6834 26.0918 45.7395 26.12 45.786C26.7129 46.7636 27.5119 47.3917 28.7203 47.3884C32.0146 47.3796 35.3091 47.3849 38.6035 47.3867C38.7769 47.3869 38.959 47.3763 39.1206 47.4251C39.2228 47.456 39.3608 47.5865 39.3632 47.6753C39.3662 47.7909 39.278 47.9651 39.1794 48.0139C39.0346 48.0855 38.8459 48.0864 38.6759 48.0865C35.4832 48.0901 32.2903 48.0893 29.0975 48.0893C28.9321 48.0893 28.7666 48.0893 28.608 48.0893C28.608 48.1854 28.5998 48.2167 28.6096 48.2406C28.6315 48.2938 28.657 48.3469 28.69 48.3939C29.3745 49.3699 30.2867 49.9325 31.5042 49.933C34.3051 49.934 37.1062 49.9329 39.9071 49.9338C40.0809 49.9338 40.263 49.9154 40.4261 49.9603C40.5483 49.994 40.727 50.1082 40.7355 50.2001C40.7472 50.327 40.6562 50.5232 40.5484 50.5871C40.3994 50.6754 40.1938 50.6972 40.0124 50.6976C37.2405 50.7038 34.4685 50.7019 31.6965 50.7019C31.5423 50.7018 31.3884 50.7018 31.2333 50.7018ZM53.0447 49.9477C53.0498 50.0044 53.0447 50.05 53.0588 50.0885C53.603 51.5621 55.2884 52.734 56.8749 52.7354C59.8356 52.738 62.7962 52.7428 65.7567 52.7332C67.1281 52.7288 68.0599 51.9983 68.7203 50.8568C68.7379 50.8264 68.7225 50.7768 68.7225 50.7018C68.5686 50.7018 68.4252 50.7018 68.2818 50.7018C67.3094 50.7018 66.3371 50.7017 65.3647 50.7018C63.5506 50.702 61.7365 50.7059 59.9225 50.6972C59.7435 50.6964 59.5431 50.655 59.3942 50.5644C59.3038 50.5094 59.2452 50.3166 59.2621 50.1985C59.2753 50.1066 59.4155 49.9916 59.5199 49.9634C59.6836 49.9193 59.8648 49.9338 60.0387 49.9338C62.7961 49.9326 65.5536 49.9355 68.311 49.9297C68.6134 49.9291 68.9237 49.9167 69.2164 49.8491C70.1992 49.6221 70.9119 49.0367 71.4515 48.089C71.2173 48.089 71.0632 48.089 70.909 48.089C67.7017 48.089 64.4944 48.0894 61.2871 48.0883C61.1426 48.0883 60.9749 48.1178 60.8599 48.0558C60.7391 47.9907 60.5961 47.8306 60.5984 47.7146C60.6004 47.6104 60.7703 47.4601 60.8951 47.4198C61.0679 47.3642 61.2677 47.3861 61.4559 47.386C64.7067 47.3848 67.9577 47.3728 71.2084 47.3919C72.4215 47.399 73.2175 46.7775 73.8328 45.8231C73.8734 45.7603 73.8755 45.6729 73.9066 45.555C73.6936 45.555 73.5214 45.555 73.3493 45.555C69.8082 45.555 66.267 45.5551 62.7259 45.5549C62.5953 45.5549 62.4633 45.5639 62.3344 45.5485C62.0879 45.5192 61.9309 45.3445 61.9285 45.1177C61.9261 44.8859 62.0737 44.7374 62.3456 44.7144C62.4897 44.7022 62.6356 44.7085 62.7807 44.7085C66.4815 44.7083 70.1822 44.7102 73.883 44.7071C74.9514 44.7061 76.2366 43.7179 76.5499 42.6478C71.0211 42.6478 65.5011 42.6478 59.9607 42.6478C59.9127 42.8145 59.8758 42.9682 59.8239 43.1167C59.6571 43.5941 59.5176 44.0844 59.3088 44.543C58.46 46.4078 57.0297 47.7366 55.298 48.7607C54.5781 49.1869 53.8168 49.5439 53.0447 49.9477ZM66.7108 54.811C66.5411 54.8017 66.4001 54.7876 66.2591 54.7872C65.3744 54.7852 64.4893 54.8014 63.6053 54.7781C63.2847 54.7697 63.1139 54.8713 62.9715 55.1592C61.4185 58.2959 59.852 61.4258 58.2916 64.5588C58.1332 64.8768 57.9901 65.2026 57.8142 65.58C58.0224 65.5922 58.162 65.6072 58.3016 65.6075C59.0268 65.6099 59.752 65.6163 60.477 65.6069C61.5914 65.5927 61.2982 65.7518 61.7306 64.8013C61.7606 64.7355 61.7992 64.6719 61.818 64.6031C61.8823 64.3677 62.0312 64.3028 62.2703 64.3062C63.2127 64.3194 64.1555 64.311 65.0982 64.3131C65.1807 64.3134 65.2631 64.3322 65.3587 64.3441C65.4229 64.7598 65.484 65.1552 65.5485 65.5731C66.6634 65.5731 67.7546 65.5731 68.9129 65.5731C68.1739 61.9621 67.4448 58.3987 66.7108 54.811ZM47.7236 65.609C47.6905 65.3874 47.6761 65.2449 47.6474 65.1054C47.3985 63.9011 47.1443 62.6979 46.8969 61.4932C46.4633 59.3816 46.0273 57.2705 45.6095 55.1558C45.552 54.8647 45.433 54.777 45.15 54.7811C44.2218 54.7945 43.293 54.7984 42.3648 54.7788C42.0674 54.7726 41.934 54.893 41.8093 55.1445C40.2348 58.3211 38.6487 61.4919 37.0674 64.665C36.928 64.9447 36.8015 65.2309 36.64 65.5762C36.8586 65.5898 37.011 65.6066 37.1635 65.6073C37.8309 65.6104 38.4981 65.6129 39.1655 65.607C39.4975 65.6042 39.907 65.6972 40.14 65.5388C40.3881 65.3702 40.4693 64.9558 40.6231 64.6486C40.6296 64.6356 40.635 64.6221 40.6392 64.6082C40.7081 64.3849 40.8453 64.3016 41.0909 64.3056C42.0335 64.3208 42.9767 64.3109 43.9196 64.3131C44.0029 64.3134 44.0863 64.334 44.1957 64.3485C44.2403 64.6438 44.2829 64.9279 44.3263 65.2118C44.3857 65.5995 44.3859 65.604 44.7936 65.6072C45.3883 65.6116 45.9831 65.6086 46.578 65.6087C46.9377 65.609 47.2975 65.609 47.7236 65.609ZM52.0996 57.5158C51.6937 60.2272 51.2965 62.8805 50.8936 65.5719C51.0708 65.587 51.1967 65.6068 51.3227 65.6072C52.222 65.6097 53.1213 65.6103 54.0205 65.6069C54.4623 65.6054 54.4691 65.5973 54.534 65.1521C54.8075 63.2767 55.0789 61.4011 55.3523 59.5258C55.4479 58.8704 55.5468 58.2156 55.6501 57.5208C56.6215 57.5208 57.5736 57.5208 58.5741 57.5208C58.7552 56.5903 58.9299 55.6927 59.1182 54.7251C58.8658 54.7251 58.6958 54.7251 58.5256 54.7251C56.5095 54.725 54.4934 54.7249 52.4773 54.7249C51.6215 54.7249 50.7657 54.7341 49.91 54.72C49.6354 54.7154 49.5236 54.8203 49.4814 55.0826C49.4103 55.5249 49.3071 55.9618 49.2235 56.4022C49.1571 56.7525 49.0999 57.1046 49.0282 57.5158C50.0723 57.5158 51.066 57.5158 52.0996 57.5158ZM30.9263 65.5689C31.118 65.5842 31.269 65.606 31.42 65.6066C32.3046 65.6101 33.1891 65.6098 34.0736 65.6085C34.5371 65.6078 34.5405 65.6065 34.6332 65.1502C35.2289 62.2174 35.8237 59.2846 36.4168 56.3515C36.5185 55.8488 36.6108 55.3443 36.7136 54.8089C35.4871 54.8089 34.3188 54.8089 33.1003 54.8089C32.3785 58.3815 31.6583 61.9461 30.9263 65.5689ZM46.2673 44.354C45.7036 43.071 45.3581 41.7077 45.2777 40.2604C44.0143 40.2604 42.7914 40.2604 41.5116 40.2604C41.6309 42.4486 42.4837 44.257 43.9767 45.7468C44.7604 45.2704 45.4992 44.8211 46.2673 44.354ZM45.2762 39.5753C45.3631 38.1433 45.7011 36.7797 46.2662 35.5118C45.4904 35.0367 44.7541 34.5858 43.977 34.11C42.4724 35.5913 41.6422 37.3976 41.5101 39.5752C42.7849 39.5753 44.0081 39.5753 45.2762 39.5753ZM55.9701 45.7495C57.4601 44.2544 58.331 42.4546 58.4433 40.2598C57.1765 40.2598 55.9537 40.2598 54.6859 40.2598C54.5976 41.6995 54.2984 43.0735 53.7156 44.352C54.4772 44.8241 55.1992 45.2715 55.9701 45.7495ZM58.4418 39.5769C58.3251 37.3651 57.4797 35.5652 55.9636 34.1132C55.1812 34.5982 54.4597 35.0453 53.7039 35.5138C54.2999 36.7952 54.5738 38.1747 54.698 39.5769C55.9772 39.5769 57.1886 39.5769 58.4418 39.5769ZM49.6553 40.265C48.386 40.265 47.1644 40.265 45.899 40.265C45.9424 41.6668 46.2197 42.9671 46.8135 44.136C47.805 43.9441 48.7198 43.7673 49.6553 43.5864C49.6553 42.5028 49.6553 41.4073 49.6553 40.265ZM49.6452 36.2535C48.6755 36.0633 47.7608 35.8837 46.8081 35.6967C46.2472 36.904 45.9265 38.186 45.9047 39.5769C47.1726 39.5769 48.3939 39.5769 49.6452 39.5769C49.6452 38.4443 49.6452 37.3377 49.6452 36.2535ZM53.9545 40.2727C52.7182 40.2727 51.5089 40.2727 50.2975 40.2727C50.2975 41.4216 50.2975 42.5293 50.2975 43.5889C51.2471 43.7758 52.1509 43.9537 53.0625 44.1331C53.6241 43.2721 54.1364 41.0989 53.9545 40.2727ZM54.0108 39.5845C54.0045 38.1665 53.6618 36.883 53.0906 35.7003C52.1192 35.8909 51.2066 36.07 50.2975 36.2484C50.2975 37.3535 50.2975 38.4587 50.2975 39.5845C51.5326 39.5845 52.7294 39.5845 54.0108 39.5845ZM55.5038 33.6157C54.454 32.5553 51.6858 31.5425 51.0105 31.7794C51.4529 32.2722 51.9203 32.744 52.3293 33.2618C52.7376 33.7786 53.0875 34.3414 53.4743 34.9005C54.2243 34.5801 54.8934 34.1675 55.5038 33.6157ZM44.4185 46.1808C45.3084 47.1635 47.7295 48.1557 49.0699 48.1349C48.0101 47.188 47.1747 46.1362 46.4852 44.8807C45.7654 45.3335 45.11 45.7458 44.4185 46.1808ZM46.5408 34.897C47.1583 33.6987 48.0199 32.7059 48.9405 31.7442C47.2431 31.908 45.758 32.5192 44.4427 33.5819C44.9857 34.1325 45.8493 34.6761 46.5408 34.897ZM55.5345 46.2478C54.8654 45.6826 54.1972 45.2552 53.4195 44.9556C52.7712 46.1735 51.9213 47.1771 50.985 48.124C52.681 47.958 54.1715 47.3454 55.5345 46.2478ZM49.6517 44.2804C48.7505 44.2917 47.9308 44.423 47.1054 44.759C47.7284 45.9933 48.5385 46.9951 49.6517 47.8672C49.6517 46.6279 49.6517 45.4914 49.6517 44.2804ZM49.6403 35.5583C49.6403 34.3626 49.6403 33.2199 49.6403 31.9933C48.5474 32.8797 47.7185 33.8682 47.0992 35.1058C47.9519 35.352 48.742 35.6133 49.6403 35.5583ZM50.2616 44.2971C50.2588 45.5111 50.2569 46.6528 50.3168 47.8078C51.3852 46.9716 52.2016 45.9717 52.8138 44.7436C51.9641 44.4753 51.1675 44.2655 50.2616 44.2971ZM52.8124 35.0905C52.1882 33.8605 51.3738 32.8831 50.3272 32.0389C50.2106 32.619 50.2389 35.2469 50.3582 35.5666C51.1869 35.5964 51.9748 35.3916 52.8124 35.0905Z" fill="white"/>
<path d="M89.208 31.533C88.0497 32.0318 86.8914 32.5305 85.7062 33.0409C85.5852 32.7726 85.4801 32.5396 85.3469 32.2443C87.0324 31.5116 88.6935 30.7895 90.3926 30.0508C90.5053 30.2965 90.6359 30.4956 90.681 30.7123C90.7069 30.8364 90.6196 31.0065 90.5394 31.1267C89.8403 32.1745 89.1311 33.2155 88.4256 34.259C88.3451 34.378 88.2692 34.5002 88.2129 34.6614C89.4138 34.2403 90.5524 33.6737 91.7655 33.1986C91.8824 33.4545 91.9884 33.6863 92.1268 33.9894C90.4313 34.7271 88.7701 35.4501 87.0696 36.1902C86.9662 35.9595 86.844 35.7716 86.8044 35.5676C86.7787 35.4358 86.8414 35.2589 86.9203 35.1389C87.6283 34.0624 88.3492 32.9942 89.065 31.9227C89.1337 31.8198 89.1943 31.7115 89.2586 31.6058C89.2419 31.5816 89.225 31.5574 89.208 31.533Z" fill="white"/>
<path d="M22.826 13.9839C23.5371 13.5161 24.1897 13.0307 24.8936 12.6369C25.9271 12.0585 26.9577 12.2585 27.7669 13.1253C28.2492 13.6419 28.6282 14.2277 28.7427 14.934C28.8979 15.8914 28.5434 16.6781 27.7924 17.2637C27.212 17.7162 26.59 18.1152 25.9428 18.5683C24.9049 17.0417 23.8844 15.5406 22.826 13.9839ZM26.2617 17.4114C26.651 17.1333 27.0114 16.913 27.3274 16.6409C27.757 16.2711 27.9994 15.7888 27.8661 15.2114C27.6907 14.4516 27.2719 13.8355 26.6228 13.3927C26.2979 13.1709 25.9358 13.0848 25.5493 13.2091C24.9766 13.3934 24.5341 13.783 24.0329 14.1295C24.7835 15.2348 25.5049 16.2971 26.2617 17.4114Z" fill="white"/>
<path d="M41.2154 11.4207C40.9004 9.5708 40.6 7.8061 40.2919 5.99656C40.5376 5.94453 40.7825 5.87775 41.0319 5.84263C41.6609 5.75379 42.29 5.63966 42.9227 5.60801C43.9558 5.55634 44.6492 6.07592 45.0471 7.0139C45.3506 7.72913 45.4241 8.48237 45.2763 9.22937C45.0931 10.1549 44.4516 10.7219 43.57 10.9599C42.8208 11.162 42.0441 11.2629 41.2154 11.4207ZM41.3107 6.57045C41.5396 7.91148 41.7572 9.18705 41.9855 10.525C42.51 10.4023 42.98 10.3267 43.4264 10.1795C43.9802 9.99675 44.2846 9.572 44.3922 8.99955C44.5039 8.40576 44.3669 7.84698 44.1471 7.30726C43.8777 6.64561 43.3836 6.29783 42.6522 6.3718C42.2239 6.41508 41.7995 6.4966 41.3107 6.57045Z" fill="white"/>
<path d="M14.9944 21.5587C15.5492 20.9519 16.0535 20.3306 16.6302 19.7861C17.5097 18.9559 18.6814 19.117 19.2361 20.1422C19.4106 20.4646 19.4075 20.883 19.5065 21.358C19.8112 21.4472 20.222 21.5672 20.6325 21.6879C21.0325 21.8055 21.4324 21.9238 21.9226 22.0684C21.7059 22.3107 21.5456 22.5262 21.3458 22.6949C21.271 22.7581 21.0953 22.7445 20.9812 22.7117C20.4389 22.556 19.8979 22.3933 19.3648 22.2088C19.0979 22.1165 18.9025 22.1352 18.7246 22.3753C18.545 22.6175 18.3337 22.8362 18.1073 23.0988C18.6551 23.5874 19.1811 24.0566 19.7323 24.5482C19.5325 24.7758 19.3542 24.9787 19.1425 25.22C17.7527 23.9933 16.3885 22.7893 14.9944 21.5587ZM17.562 22.6245C17.667 22.4718 17.7338 22.3601 17.8151 22.26C18.0151 22.0135 18.2431 21.7868 18.4208 21.5257C18.7054 21.1072 18.6485 20.7505 18.2844 20.4059C17.9184 20.0593 17.5565 20.0109 17.1625 20.3435C16.8045 20.6458 16.5037 21.0158 16.1567 21.3779C16.6262 21.7941 17.0446 22.1654 17.562 22.6245Z" fill="white"/>
<path d="M83.6719 25.442C83.4138 25.1054 83.1857 24.8079 82.9342 24.4799C83.1321 24.3234 83.3182 24.1761 83.5309 24.0079C83.9586 24.5543 84.3656 25.074 84.8026 25.632C84.2138 26.0968 83.6626 26.5387 83.1005 26.9665C83.0348 27.0164 82.9028 27.0149 82.8128 26.9925C81.6909 26.7124 80.3464 25.4794 80.4712 24.062C80.5041 23.6895 80.5915 23.3435 80.7944 23.0388C81.4317 22.0814 82.2833 21.4235 83.4457 21.2416C85.1416 20.9762 86.4649 22.9038 86.0646 24.024C85.9652 24.3023 85.8239 24.5655 85.6707 24.9043C85.4344 24.6306 85.2579 24.4262 85.0476 24.1826C85.0421 24.2029 85.0434 24.1392 85.0739 24.0962C85.4192 23.6088 85.3454 23.1439 85.0005 22.6965C84.6466 22.2375 84.1915 21.971 83.6035 22.1241C82.5373 22.4017 81.708 22.9905 81.359 24.0818C81.2827 24.3204 81.3176 24.6399 81.4117 24.8785C81.6193 25.4047 82.0019 25.8087 82.5231 26.0489C82.6312 26.0986 82.8161 26.0957 82.9127 26.0342C83.167 25.8727 83.3921 25.6656 83.6719 25.442Z" fill="white"/>
<path d="M53.7781 5.05957C54.6695 5.19852 55.4935 5.2816 56.2939 5.46646C56.9144 5.60972 57.4044 5.99023 57.4915 6.68952C57.6011 7.56923 57.2478 8.23352 56.5894 8.48575C56.5507 8.50062 56.5203 8.53706 56.4454 8.59473C56.6993 9.38609 56.9582 10.1926 57.2366 11.06C56.9003 11.0287 56.608 11.0017 56.2749 10.9707C56.1033 10.4098 55.9274 9.84573 55.7583 9.27963C55.5691 8.64592 55.572 8.64232 54.9258 8.57207C54.7118 8.54881 54.4957 8.54366 54.239 8.52759C54.1463 9.2276 54.0558 9.91034 53.9568 10.6581C53.6661 10.6202 53.3908 10.5842 53.0778 10.5433C53.3117 8.71162 53.5401 6.92318 53.7781 5.05957ZM54.3267 7.76644C54.8864 7.80769 55.3727 7.87422 55.8583 7.86979C56.2513 7.86619 56.4896 7.59201 56.5701 7.1747C56.6538 6.74095 56.545 6.4368 56.1833 6.2547C55.6849 6.00366 55.1392 5.99011 54.568 5.96014C54.4882 6.55753 54.4143 7.11044 54.3267 7.76644Z" fill="white"/>
<path d="M21.5099 19.1684C21.8971 19.6031 22.2412 19.9896 22.6095 20.4033C23.3388 19.7591 24.0412 19.1386 24.7749 18.4903C24.9246 18.7142 25.0575 18.9128 25.2096 19.1402C24.2807 19.9678 23.3735 20.7761 22.4468 21.6016C21.2237 20.2257 20.0138 18.8646 18.7798 17.4762C19.6972 16.6589 20.5924 15.8613 21.513 15.041C21.6747 15.2229 21.8268 15.3938 22.0252 15.6171C21.3529 16.2237 20.6929 16.8193 19.9917 17.452C20.3212 17.8258 20.6319 18.1785 20.9755 18.5683C21.6329 17.9889 22.2593 17.4369 22.9161 16.8581C23.0926 17.054 23.2523 17.2314 23.4371 17.4367C22.7907 18.0178 22.1685 18.5768 21.5099 19.1684Z" fill="white"/>
<path d="M83.0132 28.2358C84.611 27.2827 86.1719 26.3518 87.7554 25.4072C88.3868 26.4654 88.9939 27.4828 89.6276 28.5447C89.4075 28.68 89.2053 28.8044 88.9685 28.9499C88.4964 28.1679 88.0355 27.4045 87.55 26.6004C87.1177 26.8565 86.7144 27.0953 86.2701 27.3585C86.7131 28.1105 87.1356 28.8281 87.5778 29.579C87.3468 29.7232 87.1442 29.8497 86.9177 29.9911C86.4697 29.2474 86.0381 28.5309 85.5818 27.7733C85.1026 28.0575 84.6482 28.3271 84.1601 28.6167C84.6569 29.458 85.1324 30.2629 85.6323 31.1094C85.3809 31.2128 85.1599 31.3037 84.9084 31.4072C84.2795 30.355 83.6645 29.3258 83.0132 28.2358Z" fill="white"/>
<path d="M69.2392 12.7209C68.9666 13.226 68.7209 13.6811 68.4529 14.1777C69.3019 14.6408 70.1225 15.0883 70.9846 15.5585C70.8288 15.7758 70.6902 15.9695 70.53 16.1929C69.4456 15.6079 68.379 15.0324 67.2717 14.435C68.1425 12.8244 69.0058 11.2274 69.8964 9.58008C70.9759 10.1627 72.0248 10.7288 73.1083 11.3136C72.9862 11.5458 72.8813 11.7454 72.7498 11.9956C71.9384 11.564 71.1517 11.1455 70.3316 10.7093C70.0919 11.1465 69.8649 11.5606 69.6167 12.0135C70.3849 12.4344 71.1169 12.8354 71.8823 13.2548C71.76 13.4914 71.65 13.7039 71.5251 13.9456C70.7605 13.5358 70.0253 13.142 69.2392 12.7209Z" fill="white"/>
<path d="M37.3999 11.714C38.3472 11.4265 39.2299 11.1586 40.166 10.8745C40.2044 11.1476 40.2377 11.383 40.2748 11.6466C39.0978 12.0095 37.9561 12.3615 36.7584 12.7308C36.2203 10.9818 35.6865 9.24739 35.1355 7.45691C36.2932 7.10073 37.4335 6.74983 38.6169 6.38574C38.7013 6.63522 38.7771 6.85893 38.8644 7.11692C37.9899 7.39062 37.1396 7.65688 36.2429 7.93753C36.3893 8.41635 36.5264 8.86508 36.677 9.35756C37.5157 9.1088 38.3233 8.86939 39.153 8.62327C39.2381 8.89253 39.3061 9.10724 39.3849 9.35624C38.5604 9.61364 37.7651 9.8618 36.9151 10.1271C37.0777 10.6594 37.2313 11.1622 37.3999 11.714Z" fill="white"/>
<path d="M16.5572 25.5992C16.6745 25.4224 16.7838 25.2542 16.8971 25.0889C16.9452 25.0187 17.0015 24.9542 17.0798 24.8545C17.6515 25.2868 17.926 25.8582 17.9018 26.5395C17.8655 27.5609 17.1037 28.5308 16.1377 28.8536C15.6691 29.0102 15.191 28.9897 14.7308 28.8299C13.6516 28.455 12.7471 27.8511 12.3283 26.734C11.8189 25.3756 12.7967 23.8911 13.9122 23.5997C14.393 23.474 14.8579 23.58 15.3586 23.7992C15.2382 24.0588 15.1211 24.3113 14.9943 24.5845C14.8447 24.5471 14.7231 24.5146 14.6006 24.4866C13.7354 24.2889 12.863 25.1188 13.0435 25.9939C13.1001 26.2685 13.2153 26.5555 13.382 26.7785C13.8468 27.4006 14.4796 27.8134 15.234 27.992C16.3042 28.2453 16.9568 27.4647 17.0587 26.7234C17.0919 26.482 16.9314 26.2057 16.8296 25.9577C16.7775 25.8305 16.6597 25.7301 16.5572 25.5992Z" fill="white"/>
<path d="M12.0999 28.84C12.0154 29.0935 11.9299 29.35 11.8458 29.6023C11.5868 29.5868 11.3536 29.5321 11.1345 29.5668C10.2686 29.7034 9.78925 30.7645 10.216 31.569C10.4192 31.9521 10.7348 32.2238 11.1036 32.4397C11.6216 32.7431 12.1618 32.9819 12.7787 32.9594C13.6708 32.9267 14.39 32.0366 14.1363 31.2297C14.042 30.93 13.7961 30.678 13.5744 30.3345C13.6625 30.1562 13.7943 29.8897 13.9255 29.6242C14.8571 30.0422 15.1403 31.0362 14.95 31.8493C14.8756 32.1675 14.7341 32.4821 14.5659 32.7643C13.9998 33.7142 13.0872 34.0777 11.9056 33.8007C11.1187 33.6164 10.4244 33.2398 9.86191 32.6358C8.76131 31.4541 9.27378 29.7351 10.2666 28.9906C10.7476 28.6299 11.5445 28.5715 12.0999 28.84Z" fill="white"/>
<path d="M79.5142 23.5927C78.786 22.9553 78.7894 22.9569 79.1479 22.166C79.4771 21.4396 79.5138 21.6556 78.9536 21.0837C78.6698 20.7939 78.3628 20.5264 78.0873 20.2295C77.9262 20.0558 77.7852 20.0602 77.593 20.1602C77.2493 20.3391 76.8957 20.4986 76.5322 20.6732C76.306 20.4593 76.1001 20.2644 75.8474 20.0253C77.6758 19.1846 79.4442 18.3714 81.2287 17.5508C81.4461 17.7806 81.6441 17.9899 81.8614 18.2197C81.0872 19.992 80.3074 21.7773 79.5142 23.5927ZM80.7485 18.7356C80.7202 18.7092 80.6919 18.6829 80.6636 18.6565C79.9924 18.9836 79.3212 19.3109 78.7132 19.6072C79.0743 19.9967 79.4227 20.3726 79.8069 20.7872C80.1278 20.0881 80.4382 19.4119 80.7485 18.7356Z" fill="white"/>
<path d="M57.6006 11.1329C58.7451 9.54037 59.875 7.96772 61.0126 6.38477C61.0737 6.38764 61.1304 6.38285 61.1838 6.39388C61.9472 6.55129 61.939 6.55273 62.0177 7.32982C62.1828 8.95665 62.3575 10.5824 62.5274 12.2088C62.5332 12.2639 62.5282 12.3201 62.5282 12.4375C62.217 12.3562 61.9326 12.2819 61.6123 12.1982C61.5779 11.8112 61.5366 11.4393 61.5146 11.0663C61.5002 10.8215 61.4286 10.6805 61.1531 10.6202C60.5623 10.4908 59.9824 10.3124 59.3727 10.1472C59.1457 10.4691 58.9189 10.767 58.7192 11.082C58.5734 11.3118 58.4162 11.4084 58.1466 11.2882C57.9903 11.2184 57.8145 11.1918 57.6006 11.1329ZM61.2254 7.61682C61.1848 7.60639 61.1441 7.59584 61.1036 7.58541C60.6812 8.19994 60.2587 8.81447 59.8085 9.46964C60.1346 9.56327 60.3804 9.63915 60.6291 9.70377C60.8714 9.76683 61.1168 9.8185 61.4125 9.8872C61.3464 9.08505 61.2858 8.35087 61.2254 7.61682Z" fill="white"/>
<path d="M7.54796 34.9878C9.50683 34.9228 11.4435 34.8585 13.423 34.793C13.309 35.125 13.2116 35.4083 13.1044 35.7208C12.612 35.7208 12.1374 35.7208 11.6227 35.7208C11.3813 36.4191 11.1475 37.0955 10.9101 37.7825C11.2275 38.043 11.5078 38.2941 11.8104 38.5143C12.0239 38.6696 12.0831 38.8278 11.9641 39.0675C11.8891 39.2188 11.8456 39.3856 11.7653 39.6084C11.5486 39.4359 11.3695 39.299 11.1965 39.1549C9.99388 38.1536 8.79269 37.1505 7.59077 36.1485C7.22122 35.8404 7.21978 35.8406 7.38573 35.3886C7.43033 35.2666 7.48297 35.1476 7.54796 34.9878ZM10.8059 35.7407C9.96798 35.7194 9.21822 35.7344 8.46846 35.751C8.46175 35.7873 8.45503 35.8237 8.44832 35.8601C9.04125 36.3307 9.63417 36.8015 10.2694 37.3057C10.4562 36.7609 10.6187 36.2866 10.8059 35.7407Z" fill="white"/>
<path d="M64.8389 11.9825C64.9912 11.8272 65.0924 11.7333 65.183 11.6301C65.958 10.7486 66.7301 9.86466 67.5051 8.98315C67.8236 8.62098 67.8259 8.62218 68.2721 8.79949C68.4041 8.85199 68.5341 8.90942 68.7199 8.98782C67.3961 10.4514 66.0979 11.8866 64.7709 13.3537C64.5154 13.2556 64.263 13.1587 64.0027 13.0589C64.0027 11.1088 64.0027 9.16238 64.0027 7.1416C64.3147 7.26245 64.5727 7.34456 64.811 7.46565C64.88 7.50077 64.9275 7.64847 64.9252 7.74294C64.8936 9.00281 64.8503 10.2624 64.813 11.5222C64.8094 11.6461 64.8263 11.7707 64.8389 11.9825Z" fill="white"/>
<path d="M20.62 77.8926C21.0345 78.1252 21.141 78.3998 21.0302 78.8449C20.7964 79.7839 20.6336 80.7406 20.4429 81.6902C20.4294 81.7568 20.4243 81.825 20.4187 81.8681C21.1462 81.1784 21.8762 80.4864 22.6227 79.7788C22.7664 79.9128 22.9123 80.0487 23.1047 80.2282C22.0974 81.2749 21.0998 82.3114 20.1065 83.3435C19.5856 83.0031 19.5803 82.9926 19.685 82.4599C19.88 81.4666 20.0761 80.4735 20.2703 79.48C20.278 79.4409 20.2713 79.3989 20.2713 79.262C19.5311 80.0258 18.8437 80.7352 18.1264 81.4754C17.9511 81.3221 17.7937 81.1845 17.6052 81.0196C18.629 79.9575 19.6284 78.9209 20.62 77.8926Z" fill="white"/>
<path d="M7.74628 64.9209C7.66091 64.7003 7.58957 64.5162 7.50012 64.285C8.85995 63.7693 10.1933 63.2635 11.5239 62.7588C11.8502 63.2215 11.8514 63.3184 11.5313 63.749C10.9953 64.4698 10.4573 65.1891 9.9217 65.9101C9.83897 66.0215 9.76451 66.1389 9.73489 66.3275C10.6596 65.9825 11.5844 65.6375 12.5368 65.282C12.6228 65.4966 12.6969 65.6815 12.7936 65.923C11.4398 66.436 10.1094 66.94 8.78717 67.441C8.42039 66.9895 8.41715 66.9097 8.7283 66.4916C9.35875 65.6447 9.98885 64.7974 10.6191 63.9503C10.6041 63.9235 10.5891 63.8967 10.5741 63.8699C9.64017 64.2171 8.70612 64.5643 7.74628 64.9209Z" fill="white"/>
<path d="M53.1688 90.383C53.7568 90.1881 53.777 90.1915 54.132 90.6216C54.7132 91.3256 55.291 92.0324 55.8719 92.7366C55.9518 92.8335 56.0414 92.9223 56.2127 92.988C56.0988 92.0128 55.985 91.0375 55.868 90.0349C56.0933 89.9897 56.2851 89.9512 56.5382 89.9004C56.7177 91.3583 56.8918 92.7727 57.0649 94.178C56.4495 94.3903 56.4513 94.3887 56.0837 93.9419C55.5037 93.2369 54.9213 92.5338 54.3388 91.8308C54.2671 91.7442 54.1886 91.6633 54.1132 91.5797C54.0815 91.5909 54.0499 91.6019 54.0182 91.6131C54.1347 92.5868 54.2512 93.5606 54.3706 94.5591C54.1378 94.5978 53.942 94.6304 53.7012 94.6706C53.5235 93.2391 53.3477 91.8235 53.1688 90.383Z" fill="white"/>
<path d="M93.2419 46.324C92.2693 46.375 91.2967 46.426 90.2915 46.4787C90.2915 46.2686 90.2915 46.0726 90.2915 45.8056C91.7004 45.7161 93.121 45.6257 94.5441 45.5352C94.6957 45.9814 94.5887 46.2746 94.1955 46.5364C93.4479 47.0341 92.7367 47.5865 92.0116 48.118C91.9112 48.1916 91.818 48.2751 91.7447 48.4269C92.732 48.3688 93.7192 48.3105 94.7437 48.2502C94.7437 48.4798 94.7437 48.6867 94.7437 48.9305C93.3223 49.0183 91.9086 49.1054 90.4871 49.1932C90.3435 48.7626 90.4397 48.4677 90.8353 48.2071C91.561 47.7292 92.2501 47.1956 92.9525 46.6825C93.0634 46.6014 93.1642 46.5065 93.2696 46.418C93.2604 46.3866 93.2511 46.3553 93.2419 46.324Z" fill="white"/>
<path d="M9.54313 47.523C9.66747 47.9697 9.54745 48.2298 9.164 48.4426C8.37887 48.8783 7.62287 49.3662 6.85608 49.8347C6.73774 49.907 6.62575 49.9897 6.51076 50.0676C6.51628 50.1029 6.52191 50.1381 6.52743 50.1734C7.50249 50.1734 8.47755 50.1734 9.48222 50.1734C9.48222 50.4435 9.48222 50.6366 9.48222 50.8342C8.05189 50.8342 6.64074 50.8342 5.24253 50.8342C5.11064 50.2043 5.11735 50.188 5.58402 49.902C6.35033 49.4324 7.11687 48.9634 7.88234 48.4925C8.00105 48.4195 8.11412 48.3373 8.21412 48.1805C7.2411 48.149 6.26819 48.1174 5.26136 48.0847C5.26136 47.8643 5.26136 47.672 5.26136 47.4102C6.69601 47.4479 8.1092 47.4852 9.54313 47.523Z" fill="white"/>
<path d="M19.4898 77.0303C19.3855 77.3407 19.332 77.6818 19.1672 77.9558C18.6904 78.7488 17.9971 79.269 17.0629 79.4191C16.3971 79.5261 15.5795 79.057 15.1765 78.33C14.8273 77.7001 14.8092 77.0533 15.1742 76.4266C15.5684 75.7497 16.1436 75.2678 16.9018 75.0566C18.1688 74.7037 19.426 75.6886 19.4898 77.0303ZM18.7694 76.8952C18.7728 76.109 17.969 75.4705 17.2165 75.7043C16.5275 75.9183 15.9877 76.3538 15.6846 77.0245C15.3677 77.726 15.8537 78.5889 16.6126 78.7087C17.4688 78.8439 18.7365 77.8032 18.7688 76.9386C18.7693 76.9242 18.7688 76.9097 18.7694 76.8952Z" fill="white"/>
<path d="M92.5161 49.9844C92.8284 50.0378 93.148 50.0649 93.4516 50.1497C94.3258 50.3937 94.8303 51.0686 94.8452 51.9727C94.8614 52.961 94.4077 53.688 93.5404 53.9578C92.7678 54.1982 91.9897 54.158 91.2586 53.7836C90.4951 53.3926 90.1158 52.5361 90.2821 51.6445C90.4525 50.7316 91.1144 50.1196 92.0314 50.0353C92.1896 50.0208 92.3504 50.0333 92.5098 50.0333C92.512 50.017 92.514 50.0007 92.5161 49.9844ZM92.5712 53.3926C92.8939 53.3343 93.1738 53.3179 93.4293 53.2304C93.9657 53.0466 94.2417 52.6335 94.2547 52.0735C94.266 51.5832 93.9644 51.119 93.4686 50.9293C92.8849 50.7061 92.2892 50.6636 91.6836 50.8734C91.1474 51.0593 90.9086 51.4603 90.8573 51.9879C90.8097 52.4763 91.1131 52.9663 91.6041 53.154C91.9224 53.2758 92.2703 53.321 92.5712 53.3926Z" fill="white"/>
<path d="M84.4893 71.3788C84.5075 69.903 85.8622 68.9457 87.2359 69.4833C87.6581 69.6485 88.0666 69.9049 88.4104 70.2017C89.0244 70.7321 89.2087 71.4349 88.9464 72.21C88.6635 73.0466 88.0951 73.6036 87.1883 73.6765C86.3331 73.7453 84.9002 73.0509 84.5514 71.8935C84.5022 71.7306 84.5086 71.5509 84.4893 71.3788ZM86.4989 70.0351C85.8785 70.0405 85.5251 70.256 85.2902 70.6879C85.0734 71.0865 85.0421 71.503 85.302 71.8823C85.7434 72.5269 86.3771 72.8893 87.1514 72.9635C87.6101 73.0075 87.9472 72.7715 88.1925 72.3827C88.4473 71.9788 88.5053 71.5594 88.251 71.1559C87.8129 70.4608 87.1406 70.1302 86.4989 70.0351Z" fill="white"/>
<path d="M69.4371 89.2628C69.4497 90.0839 69.0396 90.6404 68.3251 90.9774C67.6088 91.3153 66.8958 91.3306 66.2347 90.8261C65.4135 90.1996 64.9867 88.8419 65.2826 87.9386C65.628 86.8847 67.431 85.9926 68.5769 87.1888C69.1286 87.7646 69.4251 88.4582 69.4371 89.2628ZM67.1662 87.2457C66.4343 87.275 65.8302 87.8321 65.8781 88.5242C65.9263 89.2236 66.1968 89.8524 66.7443 90.3152C67.4036 90.8724 68.4663 90.5074 68.6826 89.6673C68.872 88.9316 68.3356 87.7241 67.6583 87.3906C67.5071 87.3161 67.3308 87.2926 67.1662 87.2457Z" fill="white"/>
<path d="M71.7439 87.1598C71.4411 87.3364 71.1568 87.5025 70.8375 87.6888C71.1211 88.1932 71.3892 88.67 71.6817 89.1902C71.4898 89.3049 71.3086 89.4133 71.0842 89.5476C70.358 88.289 69.6387 87.0421 68.8854 85.7363C69.5186 85.4029 70.103 85.0566 70.7197 84.7831C71.2007 84.5698 71.7017 84.6202 72.073 85.0435C72.4374 85.4589 72.6124 85.9357 72.3458 86.4832C72.321 86.5343 72.2992 86.5869 72.2578 86.6796C72.8098 87.0691 73.3616 87.4585 73.9401 87.8668C73.8614 87.9253 73.8038 87.9627 73.7524 88.0072C73.432 88.2843 73.1505 88.2207 72.8407 87.9593C72.499 87.6714 72.1187 87.4298 71.7439 87.1598ZM70.5092 87.1311C70.6034 87.0953 70.6737 87.0788 70.7336 87.0441C70.9588 86.9137 71.188 86.7882 71.402 86.6408C71.7715 86.3866 71.8505 86.1092 71.6772 85.7533C71.4946 85.3786 71.1838 85.2298 70.776 85.3921C70.4477 85.5228 70.1484 85.7266 69.8059 85.9146C70.0583 86.3512 70.2805 86.7354 70.5092 87.1311Z" fill="white"/>
<path d="M52.3995 5.75796C51.8228 5.75796 51.2775 5.75796 50.6951 5.75796C50.6656 7.33565 50.6368 8.877 50.6074 10.4461C50.3233 10.4461 50.071 10.4461 49.7654 10.4461C49.7654 8.89271 49.7654 7.35111 49.7654 5.75689C49.1708 5.75689 48.6276 5.75689 48.048 5.75689C48.048 5.46988 48.048 5.23599 48.048 4.94275C49.5097 4.97068 50.9515 4.88508 52.3997 5.02151C52.3995 5.27387 52.3995 5.49721 52.3995 5.75796Z" fill="white"/>
<path d="M6.99287 62.634C7.38543 62.311 7.7497 61.977 8.15006 61.694C8.42584 61.4989 8.4756 61.2895 8.36637 60.9973C8.30114 60.8229 8.2527 60.6421 8.18076 60.4135C7.62764 60.5515 7.08867 60.6859 6.51853 60.8282C6.45821 60.6024 6.4069 60.4101 6.34131 60.1647C7.74575 59.7871 9.13124 59.4145 10.564 59.0293C10.7214 59.8573 11.1308 60.5792 11.0103 61.3977C10.8709 62.3436 9.8045 62.769 9.01781 62.2112C8.94802 62.1616 8.87836 62.1121 8.78627 62.0468C8.52848 62.2632 8.27536 62.4757 8.02224 62.6883C7.76877 62.9012 7.51529 63.1141 7.21937 63.3626C7.13639 63.0958 7.06649 62.8706 6.99287 62.634ZM8.77069 60.2359C8.88375 60.6241 8.95989 60.9616 9.08112 61.2821C9.2298 61.6749 9.49934 61.7925 9.91817 61.6958C10.2724 61.614 10.4816 61.3446 10.4281 60.9554C10.3799 60.6042 10.2724 60.2612 10.1809 59.8712C9.69922 59.9958 9.27104 60.1066 8.77069 60.2359Z" fill="white"/>
<path d="M36.327 90.8474C36.1442 91.4092 35.9754 91.9279 35.8001 92.4667C35.5791 92.4056 35.3884 92.353 35.1316 92.2822C35.5676 90.8946 35.998 89.5249 36.4499 88.0869C37.1236 88.3262 37.7734 88.5185 38.3896 88.788C38.8913 89.0074 39.183 89.4255 39.1032 90.009C39.0273 90.5625 38.7877 91.0012 38.1885 91.1423C38.1484 91.1518 38.1135 91.1835 38.0345 91.2287C38.1171 91.8706 38.2015 92.5273 38.2859 93.1837C37.7099 93.2099 37.5505 93.0786 37.4915 92.5185C37.4582 92.2014 37.414 91.8844 37.4032 91.5663C37.3929 91.2604 37.2622 91.0862 36.9616 91.0233C36.7654 90.982 36.5743 90.9169 36.327 90.8474ZM36.9414 88.8704C36.7902 89.3606 36.6571 89.7923 36.5132 90.2589C36.8677 90.3668 37.1673 90.4702 37.4734 90.5483C37.9083 90.6592 38.2021 90.5053 38.3387 90.118C38.4773 89.7249 38.3532 89.4032 37.9541 89.227C37.6519 89.0936 37.3299 89.005 36.9414 88.8704Z" fill="white"/>
<path d="M44.7268 94.4956C44.8501 93.0405 44.9683 91.6442 45.0877 90.2341C45.1538 90.2158 45.2081 90.1845 45.2593 90.1889C45.8351 90.2387 46.4139 90.2701 46.9848 90.3543C47.5165 90.4329 47.9776 90.6879 48.0721 91.2622C48.1707 91.8612 48.1398 92.3817 47.3224 92.8258C47.5453 93.445 47.7724 94.0758 48.0189 94.7605C47.834 94.7605 47.6959 94.7605 47.5576 94.7605C47.3628 94.7605 47.2422 94.6829 47.1775 94.4818C47.0362 94.0419 46.8597 93.613 46.7197 93.1726C46.6568 92.9744 46.5525 92.8869 46.3496 92.8847C46.1064 92.8821 45.8635 92.8651 45.5707 92.8521C45.5215 93.4162 45.4756 93.9438 45.4242 94.534C45.2074 94.5221 44.9913 94.5101 44.7268 94.4956ZM45.6244 92.2888C46.0987 92.2888 46.4878 92.32 46.8693 92.2792C47.1901 92.2448 47.3749 91.9709 47.3955 91.6298C47.4146 91.3143 47.2636 91.036 46.9547 90.9619C46.5702 90.8695 46.1708 90.8388 45.7399 90.7759C45.6998 91.3008 45.6661 91.7425 45.6244 92.2888Z" fill="white"/>
<path d="M33.8879 7.88672C33.9957 8.14471 34.0833 8.35451 34.1862 8.60051C33.6617 8.84064 33.1665 9.06746 32.6092 9.3227C33.2406 10.7692 33.8621 12.1929 34.4942 13.6411C34.2259 13.7603 33.9784 13.8703 33.6692 14.0078C33.0308 12.5639 32.4035 11.1447 31.761 9.69182C31.2189 9.92212 30.7162 10.1358 30.1673 10.369C30.0627 10.1465 29.9614 9.93075 29.837 9.66593C31.184 9.07429 32.5146 8.48986 33.8879 7.88672Z" fill="white"/>
<path d="M88.0547 39.3915C87.9699 39.1101 87.892 38.8525 87.7946 38.5292C89.3062 38.0843 90.7938 37.6464 92.3226 37.1965C92.1641 36.628 92.0139 36.0895 91.8546 35.5186C92.083 35.4494 92.3113 35.3801 92.5961 35.2939C93.01 36.7095 93.4135 38.0894 93.828 39.5073C93.5808 39.5905 93.3558 39.6663 93.0947 39.7541C92.9241 39.1969 92.7609 38.6641 92.582 38.0799C91.0642 38.5194 89.5727 38.9516 88.0547 39.3915Z" fill="white"/>
<path d="M57.8215 92.8175C58.0711 92.7524 58.2636 92.7021 58.4476 92.6542C58.9611 93.2747 59.4925 93.4062 60.1095 93.0782C60.4559 92.8941 60.5608 92.6928 60.4939 92.3408C60.4359 92.0355 60.245 91.8504 59.8849 91.8281C59.4808 91.8031 59.0732 91.8062 58.6685 91.8257C58.0495 91.8552 57.5882 91.478 57.481 90.9117C57.3705 90.3289 57.5902 89.8387 58.1651 89.5601C58.6522 89.324 59.1633 89.185 59.718 89.2866C60.1892 89.3729 60.4992 89.6349 60.6877 90.1257C60.4935 90.2067 60.3033 90.2862 60.1229 90.3614C59.597 89.8238 59.085 89.7289 58.5247 90.0469C58.2367 90.2105 58.1383 90.3928 58.1814 90.6826C58.225 90.9749 58.3517 91.0947 58.7127 91.1536C58.8522 91.1764 58.9971 91.1667 59.1396 91.1703C59.4862 91.1789 59.8382 91.1517 60.1786 91.2021C60.832 91.299 61.1379 91.6069 61.2306 92.1809C61.3304 92.7985 61.1188 93.2614 60.5518 93.5472C59.9983 93.8261 59.4084 93.9477 58.7868 93.8018C58.2877 93.6847 58.0016 93.3577 57.8215 92.8175Z" fill="white"/>
<path d="M81.2381 80.2788C81.3526 80.152 81.4458 80.0603 81.5254 79.958C81.641 79.8097 81.7581 79.7983 81.9407 79.8606C82.5299 80.0612 83.3942 79.4162 83.3852 78.8017C83.3793 78.4012 82.9424 78.0775 82.5644 78.2148C82.3918 78.2775 82.2363 78.3927 82.0807 78.4954C81.7549 78.7107 81.4459 78.9544 81.1081 79.1482C80.715 79.3738 80.3262 79.3011 79.9708 79.0307C79.5955 78.7452 79.3659 78.3678 79.4829 77.9006C79.6761 77.129 80.1385 76.5487 80.9018 76.2605C81.3081 76.1071 81.5526 76.1646 82.0226 76.4521C81.9073 76.6317 81.7922 76.8111 81.6804 76.9849C80.9856 76.7685 80.431 77.039 80.1822 77.7052C80.0891 77.9546 80.1058 78.19 80.3267 78.377C80.5393 78.5571 80.7686 78.5934 81.0061 78.4372C81.2359 78.286 81.4567 78.1212 81.6823 77.9636C81.8364 77.856 81.9849 77.7378 82.1482 77.6463C82.7019 77.336 83.2116 77.3807 83.6335 77.7641C84.0771 78.1672 84.1942 78.7015 83.9216 79.2681C83.6704 79.7901 83.2802 80.2016 82.7645 80.4714C82.2346 80.7485 81.731 80.6697 81.2381 80.2788Z" fill="white"/>
<path d="M84.4161 73.2411C84.323 73.4222 84.234 73.5951 84.1501 73.7581C83.3588 73.6363 83.0671 73.8603 82.7122 74.6585C82.5928 74.927 82.7028 75.1363 82.9149 75.3064C83.1201 75.471 83.3459 75.4994 83.5551 75.3377C83.8179 75.1345 84.0473 74.8866 84.3163 74.693C84.5937 74.4933 84.8816 74.2678 85.2003 74.1751C85.6881 74.0333 86.11 74.2497 86.4268 74.641C86.7581 75.0504 86.7546 75.5322 86.5372 75.9537C86.3298 76.3557 86.031 76.7335 85.6985 77.0425C85.2195 77.4876 84.6434 77.484 84.0277 77.1156C84.1522 76.9407 84.2753 76.7681 84.3902 76.6066C85.2342 76.7267 85.6532 76.5064 85.9303 75.8164C86.0723 75.4631 86.0129 75.2217 85.7321 75.01C85.4834 74.8225 85.2187 74.8253 84.9344 75.0408C84.7732 75.1628 84.6315 75.3105 84.4796 75.4449C84.3169 75.5889 84.1599 75.7409 83.987 75.8714C83.525 76.2203 83.0393 76.2572 82.6169 75.9891C82.1213 75.6746 81.922 75.244 82.0911 74.6418C82.2773 73.9788 82.6688 73.4438 83.31 73.1354C83.6763 72.9592 84.0357 72.9916 84.4161 73.2411Z" fill="white"/>
<path d="M72.5232 16.5774C73.2934 17.1206 74.0115 17.6271 74.7627 18.1569C74.5747 18.3566 74.4109 18.5306 74.2208 18.7323C73.2528 18.0569 72.3076 17.3975 71.3156 16.7052C72.3647 15.2028 73.4031 13.7158 74.4717 12.1855C74.7235 12.3581 74.954 12.5161 75.2231 12.7005C74.3146 14.0052 73.4331 15.2709 72.5232 16.5774Z" fill="white"/>
<path d="M9.89479 55.4277C10.0574 56.3721 10.2137 57.2806 10.3798 58.2453C10.1949 58.2935 10.0245 58.3381 9.80618 58.395C9.67249 57.6774 9.54623 56.9999 9.40786 56.2578C9.02548 56.3131 8.66337 56.3655 8.24383 56.426C8.35354 57.1192 8.45606 57.7663 8.56409 58.4485C8.35834 58.4902 8.19551 58.5233 7.98771 58.5654C7.86169 57.8857 7.74179 57.2386 7.61565 56.5582C7.18388 56.6254 6.79035 56.6865 6.3274 56.7585C6.44815 57.5195 6.56433 58.2521 6.68771 59.0298C6.47632 59.0408 6.29719 59.0501 6.09203 59.0607C5.92381 58.0895 5.76169 57.1532 5.59143 56.1699C7.03592 55.9209 8.45126 55.6767 9.89479 55.4277Z" fill="white"/>
<path d="M90.347 65.8908C91.0528 66.2633 91.362 66.9048 91.2085 67.6298C91.0052 68.59 90.4789 69.1443 89.616 69.3063C88.6657 69.485 87.2049 68.7139 86.823 67.8283C86.3967 66.8401 86.9982 65.3793 88.0585 65.236C88.3063 65.2026 88.564 65.2415 88.8864 65.2487C88.8105 65.5173 88.7576 65.7041 88.7003 65.9068C88.5844 65.9149 88.4832 65.9416 88.3894 65.9254C87.5748 65.7847 87.0738 66.9073 87.42 67.4759C87.7016 67.9386 88.1076 68.2144 88.5853 68.4017C88.9486 68.5441 89.3255 68.6543 89.7289 68.544C90.1976 68.4158 90.4633 68.0974 90.5825 67.6471C90.6918 67.2338 90.529 66.9107 90.2057 66.6565C90.1602 66.6207 90.1031 66.5996 90.0504 66.5712C90.1657 66.307 90.2558 66.1 90.347 65.8908Z" fill="white"/>
<path d="M24.7236 81.5742C25.3049 81.9769 25.3073 81.9777 25.1193 82.5942C24.7611 83.768 24.4007 84.9411 24.0389 86.1136C24.0095 86.2093 23.962 86.2993 23.9029 86.4394C23.7611 86.3381 23.6121 86.2687 23.5193 86.1539C23.441 86.0571 23.4255 85.9082 23.3885 85.7805C23.382 85.7581 23.4079 85.7274 23.4151 85.6996C23.4867 85.4236 23.6714 85.1101 23.5967 84.8817C23.5205 84.6487 23.1939 84.4929 22.9682 84.3144C22.3268 83.8068 22.3254 83.8096 21.6282 84.2417C21.5312 84.3017 21.4291 84.3537 21.3078 84.4217C21.1326 84.2896 20.9615 84.1605 20.7286 83.9849C22.0828 83.1676 23.3994 82.3732 24.7236 81.5742ZM22.8616 83.4548C23.222 83.7424 23.5289 83.9873 23.8961 84.2804C24.1021 83.6572 24.2844 83.1059 24.4666 82.5545C24.4393 82.5337 24.4119 82.5127 24.3845 82.4918C23.8955 82.801 23.4066 83.1102 22.8616 83.4548Z" fill="white"/>
<path d="M32.5673 91.2497C32.5137 91.2573 32.4968 91.2654 32.4859 91.2604C31.8263 90.955 31.8859 91.1045 31.9299 90.3434C31.9399 90.1722 31.9715 90.0022 31.997 89.8027C31.4789 89.5529 30.9747 89.3097 30.3872 89.0266C30.158 89.3323 29.9233 89.6453 29.6886 89.9583C29.6515 89.9324 29.6146 89.9065 29.5775 89.8806C29.375 89.784 29.1726 89.6875 28.9164 89.5652C30.054 88.477 31.1582 87.4208 32.2894 86.3389C32.5033 86.4409 32.7064 86.5378 32.943 86.6506C32.8178 88.1825 32.6931 89.7087 32.5673 91.2497ZM32.2651 87.3321C31.795 87.7905 31.3802 88.195 30.9351 88.6291C31.3036 88.7994 31.6611 88.9647 32.0613 89.1496C32.1324 88.5145 32.1964 87.9446 32.2651 87.3321Z" fill="white"/>
<path d="M10.8789 71.924C10.4453 71.1363 10.5033 71.2874 10.9668 70.7746C11.0823 70.6467 11.1964 70.5174 11.3313 70.3662C11.1036 69.9093 10.875 69.4601 10.6561 69.0062C10.5759 68.8399 10.4526 68.8295 10.2954 68.8529C10.0098 68.8954 9.72251 68.9263 9.39709 68.9668C9.29745 68.7744 9.19397 68.5748 9.05908 68.3146C10.6362 68.1561 12.1588 68.003 13.7037 67.8477C13.816 68.0642 13.9141 68.2533 14.0315 68.4795C12.9875 69.6203 11.944 70.7604 10.8789 71.924ZM11.7909 69.9366C12.238 69.4583 12.6257 69.0434 13.0135 68.6286C12.9949 68.5949 12.9763 68.5612 12.9578 68.5275C12.394 68.5947 11.8303 68.6618 11.2 68.7367C11.4033 69.1496 11.578 69.5046 11.7909 69.9366Z" fill="white"/>
<path d="M77.6907 79.4639C79.077 80.1532 80.4331 80.8276 81.8533 81.5337C81.6385 81.7272 81.4703 81.8788 81.2847 82.0459C81.016 81.9077 80.7317 81.7681 80.4541 81.616C80.3045 81.5342 80.186 81.5505 80.0637 81.6663C79.7586 81.9551 79.4487 82.239 79.1396 82.5236C79.0193 82.6342 78.9891 82.7432 79.0672 82.9058C79.1982 83.1786 79.2976 83.4667 79.4229 83.7796C79.272 83.922 79.1083 84.0764 78.8914 84.2813C78.6878 83.7747 78.5069 83.3237 78.3253 82.8729C77.996 82.0546 77.6642 81.2372 77.3376 80.4177C77.1418 79.9264 77.145 79.9246 77.5321 79.5854C77.5751 79.5478 77.6229 79.5155 77.6907 79.4639ZM78.0684 80.3692C78.0442 80.3912 78.0201 80.413 77.9958 80.4349C78.2265 80.9741 78.4571 81.5131 78.7117 82.1079C79.0589 81.7834 79.3458 81.5152 79.6798 81.2033C79.0999 80.9031 78.5841 80.6362 78.0684 80.3692Z" fill="white"/>
<path d="M93.6239 60.1875C93.583 60.4011 93.5884 60.5455 93.5263 60.6498C93.4624 60.7573 93.3438 60.8777 93.23 60.9015C92.9213 60.9661 92.6026 60.9827 92.2612 61.0213C92.1203 61.5074 91.9689 61.9886 91.8499 62.4779C91.828 62.5682 91.9098 62.7223 91.9909 62.7917C92.2207 62.9882 92.4749 63.156 92.7534 63.3599C92.6917 63.5729 92.6294 63.7873 92.5495 64.0634C91.2894 63.1292 90.0718 62.2265 88.8206 61.2988C88.8797 61.0698 88.939 60.8398 89.0029 60.592C90.54 60.4574 92.0496 60.3252 93.6239 60.1875ZM91.6293 61.0206C90.9584 61.0746 90.3893 61.1206 89.8201 61.1665C89.8088 61.1962 89.7975 61.2261 89.7863 61.2558C90.2662 61.5966 90.7463 61.9373 91.2713 62.3101C91.3979 61.8541 91.5008 61.4837 91.6293 61.0206Z" fill="white"/>
<path d="M52.79 94.7464C52.5344 94.7464 52.3088 94.7464 52.0335 94.7464C51.942 94.5123 51.8246 94.2661 51.7503 94.0077C51.6618 93.6997 51.4804 93.605 51.1724 93.6336C50.8562 93.6631 50.5354 93.6596 50.2174 93.648C49.9752 93.6391 49.8369 93.7338 49.7769 93.9653C49.748 94.077 49.6992 94.1832 49.6637 94.2932C49.4864 94.843 49.4549 94.8615 48.8008 94.7442C48.8686 94.5284 48.9279 94.3149 49.0027 94.1069C49.3987 93.0058 49.8027 91.9075 50.1939 90.8048C50.2776 90.5689 50.3635 90.4121 50.6666 90.4151C50.9562 90.4178 51.1082 90.5027 51.2148 90.7771C51.7014 92.0292 52.2074 93.2737 52.7059 94.5212C52.7322 94.5862 52.7551 94.6524 52.79 94.7464ZM50.7354 91.3413C50.7029 91.3453 50.6704 91.3492 50.6381 91.3532C50.4569 91.9043 50.2757 92.4554 50.083 93.0413C50.5318 93.0413 50.928 93.0413 51.389 93.0413C51.1592 92.4434 50.9473 91.8923 50.7354 91.3413Z" fill="white"/>
<path d="M61.1423 88.8663C61.9276 88.6516 62.6108 88.2719 63.398 88.2695C64.0301 88.2675 64.3643 88.5441 64.5777 89.2148C64.7646 89.8023 64.6309 90.3314 64.1486 90.6379C63.8357 90.8366 63.4706 90.954 63.1262 91.1015C62.9965 91.157 62.8592 91.1941 62.6784 91.2556C62.8407 91.7765 62.9938 92.2682 63.1577 92.7946C62.9402 92.8717 62.7414 92.9422 62.5047 93.0261C62.0556 91.6547 61.6109 90.2972 61.1423 88.8663ZM62.4879 90.704C62.9178 90.529 63.3151 90.403 63.676 90.2092C63.98 90.0459 64.0266 89.7444 63.8887 89.3712C63.7531 89.0041 63.5142 88.8041 63.1813 88.8675C62.7922 88.9416 62.415 89.0783 61.9955 89.1985C62.1625 89.7094 62.3086 90.1562 62.4879 90.704Z" fill="white"/>
<path d="M28.0061 10.6878C28.288 10.5358 28.5264 10.4073 28.8092 10.2549C29.6898 11.871 30.5569 13.4628 31.4478 15.0979C31.1777 15.2452 30.9303 15.38 30.6474 15.5342C29.7677 13.9201 28.8989 12.3259 28.0061 10.6878Z" fill="white"/>
<path d="M74.7408 82.0039C74.8661 82.1804 74.9715 82.3289 75.0932 82.5006C74.7243 82.7738 74.3687 83.037 73.9864 83.3201C74.707 84.343 75.406 85.3353 76.1341 86.3688C75.9511 86.5003 75.7699 86.6304 75.5554 86.7844C74.8344 85.7706 74.1246 84.7725 73.3847 83.732C73.0023 83.9987 72.6497 84.2444 72.2496 84.5234C72.1319 84.3564 72.0217 84.2 71.8938 84.0183C72.8458 83.3447 73.7759 82.6866 74.7408 82.0039Z" fill="white"/>
<path d="M14.0538 69.9009C14.2344 69.7914 14.3797 69.7033 14.5717 69.5869C15.181 70.5812 15.7755 71.5513 16.3927 72.5581C16.2302 72.6602 16.0767 72.7564 15.8828 72.8782C15.6266 72.4863 15.3863 72.119 15.1265 71.7218C14.0568 72.3706 13.0211 72.9988 11.9447 73.6516C11.8182 73.4458 11.7092 73.2682 11.5732 73.047C12.6328 72.3969 13.665 71.7637 14.7496 71.0982C14.5199 70.7027 14.2996 70.3237 14.0538 69.9009Z" fill="white"/>
<path d="M90.3702 57.4702C91.6007 57.7125 92.7622 57.9412 93.9875 58.1826C93.9567 58.4162 93.9281 58.6332 93.8947 58.8857C92.6585 58.6463 91.46 58.4141 90.2204 58.1741C90.122 58.6359 90.0329 59.0543 89.9356 59.5105C89.7403 59.4788 89.5741 59.4518 89.3452 59.4145C89.5657 58.2751 89.7813 57.1616 90.0028 56.0176C90.2072 56.0459 90.3732 56.0689 90.5927 56.0993C90.5174 56.5629 90.4471 56.9954 90.3702 57.4702Z" fill="white"/>
<path d="M42.4376 94.1285C42.1906 94.0957 42.0064 94.0711 41.7443 94.0363C41.9592 92.8097 42.1713 91.5984 42.3902 90.3486C41.9296 90.2516 41.5125 90.1638 41.0511 90.0667C41.0888 89.863 41.1212 89.6884 41.1594 89.4814C42.3152 89.6909 43.4324 89.8934 44.5652 90.0986C44.5326 90.2938 44.5069 90.4474 44.4685 90.6765C44.0303 90.6139 43.5989 90.5523 43.1046 90.4818C42.8826 91.6962 42.6634 92.8943 42.4376 94.1285Z" fill="white"/>
<path d="M5.37989 53.8628C5.34812 53.6124 5.32485 53.429 5.29248 53.1741C6.51898 53.0708 7.73385 52.9684 8.99044 52.8624C8.99044 52.6086 9.00027 52.383 8.98768 52.1586C8.97569 51.9441 8.94032 51.731 8.90987 51.4714C9.12006 51.4555 9.30051 51.4417 9.53577 51.4238C9.62629 52.5846 9.71454 53.7146 9.80447 54.8684C9.59524 54.8999 9.42773 54.9252 9.22653 54.9555C9.17306 54.5005 9.12174 54.0643 9.06442 53.5779C7.83349 53.6731 6.62929 53.7661 5.37989 53.8628Z" fill="white"/>
<path d="M27.0405 83.2861C27.263 83.4356 27.4399 83.5545 27.636 83.6863C26.9584 84.7442 26.303 85.7675 25.6208 86.8327C26.2272 87.2278 26.8162 87.6116 27.4395 88.0175C27.2991 88.1813 27.18 88.32 27.0362 88.4877C26.2523 87.9829 25.4784 87.4846 24.6766 86.9683C25.4718 85.7296 26.2449 84.5256 27.0405 83.2861Z" fill="white"/>
<path d="M13.5816 76.1108C13.4297 75.8966 13.3139 75.7332 13.1665 75.5254C14.3566 74.6855 15.5313 73.8563 16.732 73.0088C16.8717 73.2019 16.9966 73.3747 17.1526 73.5902C15.9665 74.4275 14.7926 75.256 13.5816 76.1108Z" fill="white"/>
<path d="M87.9038 64.0173C87.9885 63.7786 88.055 63.5907 88.1412 63.3477C89.5144 63.8418 90.865 64.328 92.2506 64.8266C92.1616 65.0669 92.0886 65.264 92.0015 65.499C90.6275 65.0022 89.2765 64.5137 87.9038 64.0173Z" fill="white"/>
<path d="M34.9282 87.5264C35.1601 87.6122 35.3553 87.6845 35.5978 87.7742C35.0624 89.1431 34.5437 90.4695 34.0089 91.8371C33.786 91.7479 33.5916 91.6702 33.3468 91.5721C33.8771 90.2157 34.3949 88.8909 34.9282 87.5264Z" fill="white"/>
<path d="M90.0757 55.4221C90.0965 55.1539 90.1108 54.9706 90.1305 54.7178C91.5784 54.9016 92.9899 55.0807 94.4486 55.2658C94.4353 55.4756 94.4229 55.6713 94.4057 55.9449C92.9605 55.8304 91.5461 55.5966 90.0757 55.4221Z" fill="white"/>
<path d="M9.64746 46.6049C8.17924 46.4661 6.7959 46.3353 5.35693 46.1993C5.38067 45.957 5.4007 45.7522 5.42552 45.498C6.88535 45.6335 8.30657 45.7654 9.77408 45.9016C9.72888 46.1525 9.68943 46.3721 9.64746 46.6049Z" fill="white"/>
<path d="M62.874 61.964C63.3934 60.7324 63.889 59.5576 64.3845 58.3828C64.4064 58.3864 64.4283 58.39 64.4503 58.3936C64.6259 59.5695 64.8017 60.7454 64.9839 61.964C64.2934 61.964 63.6265 61.964 62.874 61.964Z" fill="white"/>
<path d="M43.8088 61.9799C43.0664 61.9799 42.4068 61.9799 41.6896 61.9799C42.205 60.7587 42.7035 59.5781 43.2019 58.3975C43.2275 58.3984 43.253 58.3994 43.2785 58.4003C43.4536 59.5826 43.6288 60.7649 43.8088 61.9799Z" fill="white"/>
</svg>
