<svg width="14" height="19" viewBox="0 0 14 19" fill="none" xmlns="http://www.w3.org/2000/svg">
<path d="M0 18.0833V1.88475C0 1.34769 0.179861 0.899306 0.539583 0.539583C0.899306 0.179861 1.34769 0 1.88475 0H12.1153C12.6523 0 13.1007 0.179861 13.4604 0.539583C13.8201 0.899306 14 1.34769 14 1.88475V18.0833L7 15.0768L0 18.0833ZM1.16667 16.275L7 13.7667L12.8333 16.275V1.88475C12.8333 1.70508 12.7586 1.54049 12.609 1.39096C12.4595 1.24143 12.2949 1.16667 12.1153 1.16667H1.88475C1.70508 1.16667 1.54049 1.24143 1.39096 1.39096C1.24143 1.54049 1.16667 1.70508 1.16667 1.88475V16.275Z" fill="white"/>
</svg>
