<svg width="20" height="20" viewBox="0 0 20 20" fill="none" xmlns="http://www.w3.org/2000/svg">
<path d="M18.2895 19.1152L10.9845 11.8102C10.4011 12.3068 9.73029 12.6912 8.97196 12.9634C8.21363 13.2356 7.4516 13.3717 6.68588 13.3717C4.81726 13.3717 3.23575 12.7249 1.94133 11.4313C0.647111 10.1377 0 8.55711 0 6.68967C0 4.82203 0.646819 3.24012 1.94046 1.94396C3.2341 0.647985 4.81464 0 6.68208 0C8.54972 0 10.1316 0.647111 11.4278 1.94133C12.7238 3.23575 13.3718 4.81726 13.3718 6.68587C13.3718 7.49651 13.2282 8.281 12.941 9.03933C12.6538 9.79767 12.2768 10.446 11.8102 10.9845L19.1152 18.2898L18.2895 19.1152ZM6.68588 12.2051C8.23385 12.2051 9.54071 11.6722 10.6065 10.6065C11.6722 9.5409 12.2051 8.23404 12.2051 6.68587C12.2051 5.13771 11.6722 3.83085 10.6065 2.76529C9.54071 1.69954 8.23385 1.16667 6.68588 1.16667C5.13771 1.16667 3.83085 1.69954 2.76529 2.76529C1.69954 3.83085 1.16667 5.13771 1.16667 6.68587C1.16667 8.23404 1.69954 9.5409 2.76529 10.6065C3.83085 11.6722 5.13771 12.2051 6.68588 12.2051Z" fill="white"/>
</svg>
