<svg width="19" height="19" viewBox="0 0 19 19" fill="none" xmlns="http://www.w3.org/2000/svg">
<path d="M17.4192 18.6667C15.4524 18.6667 13.4362 18.1742 11.3706 17.1894C9.30504 16.2043 7.38597 14.8218 5.61342 13.0419C3.84106 11.2621 2.46235 9.34315 1.47729 7.28496C0.49243 5.22676 0 3.21426 0 1.24746C0 0.891042 0.116667 0.594027 0.35 0.356416C0.583333 0.118805 0.875 0 1.225 0H4.11017C4.42731 0 4.704 0.0998478 4.94025 0.299542C5.17669 0.499237 5.33682 0.755416 5.42062 1.06808L5.99929 3.85C6.05315 4.17608 6.04343 4.46104 5.97012 4.70487C5.89682 4.94871 5.76742 5.1484 5.58192 5.30396L3.02225 7.69096C3.50078 8.55993 4.02986 9.36726 4.6095 10.113C5.18914 10.8587 5.80728 11.565 6.46392 12.2319C7.14136 12.9096 7.87053 13.5397 8.65142 14.1222C9.43211 14.7048 10.2891 15.2548 11.2225 15.7725L13.7174 13.2326C13.9073 13.0277 14.1208 12.8927 14.3579 12.8278C14.5949 12.7627 14.857 12.7495 15.1442 12.7884L17.5986 13.291C17.9157 13.3687 18.1731 13.5285 18.3706 13.7702C18.568 14.0117 18.6667 14.2887 18.6667 14.6014V17.4417C18.6667 17.7917 18.5479 18.0833 18.3102 18.3167C18.0726 18.55 17.7756 18.6667 17.4192 18.6667ZM2.47479 6.59604L4.71392 4.53658C4.78858 4.47669 4.83719 4.39444 4.85975 4.28983C4.88211 4.18503 4.87832 4.08781 4.84837 3.99817L4.33008 1.52571C4.30014 1.40593 4.24783 1.31619 4.17317 1.2565C4.0983 1.19661 4.00108 1.16667 3.8815 1.16667H1.4875C1.39767 1.16667 1.3229 1.19661 1.26321 1.2565C1.20332 1.31619 1.17337 1.39096 1.17337 1.48079C1.19574 2.27801 1.32067 3.11033 1.54817 3.97775C1.77547 4.84536 2.08435 5.71813 2.47479 6.59604ZM12.3331 16.3199C13.1212 16.7104 13.9614 16.999 14.8537 17.1859C15.7458 17.3729 16.5232 17.4732 17.1859 17.4866C17.2757 17.4866 17.3505 17.4566 17.4102 17.3967C17.4701 17.3369 17.5 17.2621 17.5 17.1725V14.8301C17.5 14.7105 17.4701 14.6133 17.4102 14.5384C17.3505 14.4637 17.2607 14.4114 17.141 14.3815L14.9826 13.9393C14.893 13.9094 14.8145 13.9057 14.7472 13.9282C14.6798 13.9506 14.6087 13.9992 14.534 14.0741L12.3331 16.3199Z" fill="white"/>
</svg>
