<svg width="109" height="28" viewBox="0 0 109 28" fill="none" xmlns="http://www.w3.org/2000/svg">
<path d="M18.7061 15.2674C18.9383 15.1975 19.1671 15.1175 19.4026 15.0576C21.079 14.6429 22.1651 13.592 22.6626 11.9365C23.3027 9.77135 23.1451 7.69783 21.8766 5.78254C21.2448 4.82822 20.3842 4.22698 19.2119 4.11706C19.0721 4.09162 18.935 4.05315 18.8023 4.00214L18.8156 3.88722C19.2434 3.91387 19.6712 3.93552 20.0974 3.96883C21.2581 4.06043 22.3674 4.30193 23.4038 4.84321C25.5827 5.99905 26.3023 8.00761 26.0785 10.236C25.7684 13.3471 23.5547 14.8261 20.9298 15.2325C20.5418 15.2907 20.1488 15.3224 19.9233 15.3474C20.4953 15.4789 21.2498 15.5822 21.9529 15.8287C24.0522 16.5665 25.2776 18.1137 25.6109 20.2838C25.8314 21.7112 25.8497 23.1701 25.9259 24.6141C25.9724 25.4685 26.0553 26.3129 26.6605 26.9674C26.9507 27.2822 27.3487 27.4954 27.7019 27.7535C27.781 27.7973 27.8527 27.8535 27.9141 27.9201C26.4217 28.0583 24.9675 28.0283 23.6807 27.1106C22.8085 26.4861 22.4603 25.5601 22.3376 24.5625C22.1801 23.2884 22.1353 22.001 22.0192 20.7202C21.9463 19.9174 21.8506 19.1169 21.7323 18.3186C21.5317 16.9979 20.7474 16.1635 19.512 15.7254C19.2384 15.6272 18.9714 15.5172 18.7012 15.4123L18.7061 15.2674Z" fill="white"/>
<path d="M6.12539 10.3376C5.73571 10.1511 5.94796 9.96621 6.02424 9.81965C6.462 8.97026 6.91137 8.12753 7.35909 7.28313C7.8068 6.43873 8.27109 5.56602 8.72875 4.70997C8.81332 4.55341 8.9095 4.40352 9.07532 4.12372C12.5708 12.103 16.0298 19.9907 19.5319 28H16.3233C13.385 21.3464 10.4483 14.6962 7.4536 7.91934L6.12539 10.3376Z" fill="white"/>
<path d="M0 27.9534C0.424499 27.6702 0.844023 27.4704 1.16074 27.1623C1.85221 26.4961 2.02963 25.61 2.06777 24.6757C2.12084 23.36 2.16063 22.0393 2.28997 20.7302C2.5984 17.5991 4.79717 15.4923 7.91624 15.2674C8.37059 15.2325 8.82162 15.1875 9.2743 15.1458L9.31244 15.2841C9.11511 15.364 8.92111 15.4606 8.71715 15.5222C7.05895 16.0219 6.34427 17.2493 6.19503 18.8749C6.02921 20.5953 5.9264 22.3207 5.79375 24.0378C5.63953 26.0364 4.72752 27.2439 2.9632 27.7652C2.63391 27.8661 2.29377 27.927 1.95004 27.9467C1.31495 27.975 0.676545 27.9534 0 27.9534Z" fill="white"/>
<path d="M40.722 6.07066H47.3963C51.7225 6.07066 54.0025 8.82869 54.0025 12.4295C54.0025 16.0569 51.7225 18.8166 47.4095 18.8166H42.6721V26.6226H40.722V6.07066ZM47.3266 17.0628C50.5004 17.0628 52.0658 15.1042 52.0658 12.4278C52.0658 9.75137 50.5004 7.81941 47.3134 7.81941H42.6704V17.0628H47.3266Z" fill="white"/>
<path d="M56.9773 6.07066H63.6516C67.9778 6.07066 70.2579 8.6355 70.2579 12.2629C70.2579 14.6495 69.0358 16.7464 66.7276 17.7407C68.2796 18.2503 69.2828 19.3945 69.8052 20.8301C70.1202 21.6845 70.3026 22.7604 70.3673 24.0162C70.4048 24.9071 70.5811 25.7865 70.8896 26.6226H68.719C68.5107 25.8623 68.3954 25.0793 68.3758 24.291C68.336 23.1601 68.1834 22.0692 67.8137 21.1732C67.1123 19.546 65.6099 18.4318 63.2884 18.3602H58.9274V26.6226H56.9773V6.07066ZM63.5836 16.5998C66.7557 16.5998 68.3211 14.9177 68.3211 12.2696C68.3211 9.57982 66.7557 7.82774 63.5687 7.82774H58.9257V16.5998H63.5836Z" fill="white"/>
<path d="M75.3071 26.6226H73.357V6.07066H75.3071V26.6226Z" fill="white"/>
<path d="M77.403 6.07066H79.4492L84.3111 19.5061C84.792 20.8018 85.3956 22.6088 86.1235 25.0238C86.8647 22.5539 87.4501 20.8018 87.9226 19.5061L92.7016 6.07066H94.776L87.2643 26.6226H84.9694L77.403 6.07066Z" fill="white"/>
<path d="M96.8587 6.07066H108.808V7.82108H98.8087V15.409H108.176V17.1611H98.8087V24.8722H109V26.6226H96.8587V6.07066ZM104.08 0H106.194L103.654 3.97383H102.102L104.08 0Z" fill="white"/>
</svg>
