<svg width="219" height="56" viewBox="0 0 219 56" fill="none" xmlns="http://www.w3.org/2000/svg">
<path d="M37.5839 30.5349C38.0503 30.395 38.5101 30.2351 38.9832 30.1152C42.3514 29.2857 44.5336 27.1839 45.5331 23.8729C46.8191 19.5427 46.5026 15.3957 43.9539 11.5651C42.6846 9.65644 40.9555 8.45396 38.6 8.23412C38.3192 8.18325 38.0437 8.1063 37.7771 8.00428L37.8038 7.77445C38.6633 7.82774 39.5229 7.87105 40.3791 7.93766C42.7112 8.12087 44.9401 8.60386 47.0223 9.68641C51.4001 11.9981 52.846 16.0152 52.3962 20.472C51.7732 26.6943 47.3255 29.6521 42.0516 30.4649C41.272 30.5815 40.4824 30.6448 40.0293 30.6947C41.1787 30.9579 42.6946 31.1644 44.1072 31.6574C48.325 33.133 50.7871 36.2275 51.4567 40.5677C51.8998 43.4223 51.9365 46.3402 52.0897 49.2282C52.183 50.9369 52.3496 52.6257 53.5656 53.9348C54.1486 54.5644 54.9482 54.9907 55.6579 55.507C55.8169 55.5945 55.9609 55.707 56.0843 55.8401C53.0859 56.1166 50.164 56.0566 47.5787 54.2213C45.8263 52.9722 45.1267 51.1202 44.8801 49.1249C44.5636 46.5767 44.4737 44.0019 44.2404 41.4404C44.0938 39.8349 43.9017 38.2338 43.6641 36.6372C43.261 33.9957 41.6851 32.3269 39.203 31.4509C38.6533 31.2543 38.1169 31.0345 37.5739 30.8246L37.5839 30.5349Z" fill="black"/>
<path d="M12.307 20.6752C11.524 20.3022 11.9505 19.9324 12.1037 19.6393C12.9833 17.9405 13.8862 16.2551 14.7857 14.5663C15.6852 12.8775 16.6181 11.132 17.5376 9.41994C17.7075 9.10683 17.9007 8.80704 18.2339 8.24744C25.2569 24.206 32.2067 39.9814 39.243 56H32.7964C26.8927 42.6928 20.9925 29.3923 14.9756 15.8387L12.307 20.6752Z" fill="black"/>
<path d="M0 55.9067C0.852892 55.3405 1.69579 54.9408 2.33213 54.3245C3.72141 52.9922 4.07789 51.2201 4.15452 49.3514C4.26113 46.72 4.34109 44.0785 4.60095 41.4604C5.22063 35.1982 9.63835 30.9845 15.9051 30.5349C16.818 30.4649 17.7242 30.375 18.6337 30.2917L18.7103 30.5682C18.3139 30.7281 17.9241 30.9212 17.5143 31.0445C14.1827 32.0438 12.7467 34.4987 12.4469 37.7497C12.1137 41.1906 11.9072 44.6414 11.6406 48.0757C11.3308 52.0728 9.49842 54.4877 5.95358 55.5303C5.29198 55.7322 4.60857 55.8541 3.91797 55.8934C2.64196 55.95 1.3593 55.9067 0 55.9067Z" fill="black"/>
<path d="M81.8177 12.1413H95.2274C103.92 12.1413 108.501 17.6574 108.501 24.8589C108.501 32.1137 103.92 37.6331 95.254 37.6331H85.7356V53.2453H81.8177V12.1413ZM95.0875 34.1256C101.464 34.1256 104.609 30.2084 104.609 24.8556C104.609 19.5027 101.464 15.6388 95.0608 15.6388H85.7323V34.1256H95.0875Z" fill="black"/>
<path d="M114.477 12.1413H127.887C136.579 12.1413 141.16 17.271 141.16 24.5258C141.16 29.2991 138.705 33.4927 134.067 35.4813C137.186 36.5006 139.201 38.789 140.251 41.6602C140.884 43.369 141.25 45.5208 141.38 48.0324C141.456 49.8141 141.81 51.5731 142.43 53.2453H138.069C137.65 51.7247 137.418 50.1587 137.379 48.582C137.299 46.3202 136.992 44.1385 136.249 42.3464C134.84 39.0921 131.822 36.8637 127.158 36.7204H118.395V53.2453H114.477V12.1413ZM127.751 33.1996C134.124 33.1996 137.269 29.8354 137.269 24.5391C137.269 19.1596 134.124 15.6555 127.721 15.6555H118.392V33.1996H127.751Z" fill="black"/>
<path d="M151.305 53.2453H147.387V12.1413H151.305V53.2453Z" fill="black"/>
<path d="M155.516 12.1413H159.627L169.396 39.0121C170.362 41.6036 171.575 45.2177 173.037 50.0476C174.526 45.1078 175.702 41.6036 176.652 39.0121L186.254 12.1413H190.421L175.329 53.2453H170.718L155.516 12.1413Z" fill="black"/>
<path d="M194.606 12.1413H218.614V15.6422H198.524V30.818H217.344V34.3221H198.524V49.7445H219V53.2453H194.606V12.1413ZM209.115 0H213.363L208.259 7.94766H205.141L209.115 0Z" fill="black"/>
</svg>
