<svg width="19" height="21" viewBox="0 0 19 21" fill="none" xmlns="http://www.w3.org/2000/svg">
<path d="M15.8792 21C15.1051 21 14.4488 20.7295 13.9102 20.1886C13.3717 19.6476 13.1025 18.9908 13.1025 18.2181C13.1025 18.1014 13.1542 17.8067 13.2574 17.334L4.85975 12.3486C4.60833 12.6403 4.29994 12.8687 3.93458 13.034C3.56903 13.1993 3.17742 13.2819 2.75975 13.2819C1.99306 13.2819 1.34147 13.009 0.805 12.4632C0.268333 11.9172 0 11.2628 0 10.5C0 9.73719 0.268333 9.08279 0.805 8.53679C1.34147 7.99099 1.99306 7.71808 2.75975 7.71808C3.17742 7.71808 3.56903 7.80072 3.93458 7.966C4.29994 8.13128 4.60833 8.35975 4.85975 8.65142L13.2574 3.68842C13.2036 3.53733 13.1643 3.38742 13.1396 3.23867C13.1149 3.08972 13.1025 2.93747 13.1025 2.78192C13.1025 2.00919 13.3735 1.35236 13.9154 0.811417C14.4575 0.270472 15.1157 0 15.89 0C16.6643 0 17.3206 0.270958 17.859 0.812875C18.3975 1.35499 18.6667 2.01318 18.6667 2.78746C18.6667 3.56154 18.3962 4.21789 17.8552 4.7565C17.3143 5.29492 16.6575 5.56413 15.8847 5.56413C15.4628 5.56413 15.0739 5.47769 14.7181 5.30483C14.3621 5.13217 14.0583 4.9 13.8069 4.60833L5.40925 9.5935C5.46311 9.74458 5.50239 9.8946 5.52708 10.0435C5.55178 10.1923 5.56412 10.3444 5.56412 10.5C5.56412 10.6556 5.55178 10.8077 5.52708 10.9565C5.50239 11.1054 5.46311 11.2554 5.40925 11.4065L13.8069 16.3917C14.0583 16.1 14.3621 15.8678 14.7181 15.6952C15.0739 15.5223 15.4628 15.4359 15.8847 15.4359C16.6575 15.4359 17.3143 15.7068 17.8552 16.2487C18.3962 16.7909 18.6667 17.4491 18.6667 18.2233C18.6667 18.9976 18.3957 19.654 17.8538 20.1924C17.3117 20.7308 16.6535 21 15.8792 21ZM15.8847 19.8333C16.3423 19.8333 16.7259 19.6786 17.0357 19.369C17.3452 19.0592 17.5 18.6756 17.5 18.2181C17.5 17.7604 17.3452 17.3766 17.0357 17.0669C16.7259 16.7573 16.3423 16.6025 15.8847 16.6025C15.427 16.6025 15.0433 16.7573 14.7335 17.0669C14.424 17.3766 14.2692 17.7604 14.2692 18.2181C14.2692 18.6756 14.424 19.0592 14.7335 19.369C15.0433 19.6786 15.427 19.8333 15.8847 19.8333ZM2.75975 12.1153C3.22369 12.1153 3.61258 11.9605 3.92642 11.6509C4.24044 11.3414 4.39746 10.9577 4.39746 10.5C4.39746 10.0423 4.24044 9.65864 3.92642 9.34908C3.61258 9.03953 3.22369 8.88475 2.75975 8.88475C2.30825 8.88475 1.92986 9.03953 1.62458 9.34908C1.31931 9.65864 1.16667 10.0423 1.16667 10.5C1.16667 10.9577 1.31931 11.3414 1.62458 11.6509C1.92986 11.9605 2.30825 12.1153 2.75975 12.1153ZM15.8847 4.39746C16.3423 4.39746 16.7259 4.24268 17.0357 3.93312C17.3452 3.62337 17.5 3.23964 17.5 2.78192C17.5 2.32439 17.3452 1.94075 17.0357 1.631C16.7259 1.32144 16.3423 1.16667 15.8847 1.16667C15.427 1.16667 15.0433 1.32144 14.7335 1.631C14.424 1.94075 14.2692 2.32439 14.2692 2.78192C14.2692 3.23964 14.424 3.62337 14.7335 3.93312C15.0433 4.24268 15.427 4.39746 15.8847 4.39746Z" fill="black"/>
</svg>
